<svg id="bf04c4f6-5df3-42e7-9c04-fa81ae6b9dcc" data-name="Capa 1" xmlns="http://www.w3.org/2000/svg" viewBox="0 0 159.82 180.91"><title>logo</title><rect x="35.6" y="45.71" width="123.87" height="123.87" rx="19.76" transform="translate(-65.68 94.36) rotate(-45)" style="fill:#8c0e0e"/><rect x="36.61" y="31.79" width="123.87" height="123.87" rx="19.76" transform="translate(-55.54 91) rotate(-45)" style="fill:#b71a16"/><rect x="36.61" y="23.61" width="123.87" height="123.87" rx="19.76" transform="translate(-49.76 88.6) rotate(-45)" style="fill:#ff0c00"/><path d="M139.38,73.17l-8.77-6.48.32-.44A4.46,4.46,0,0,0,130,60l-8.77-6.47.71-1a4.46,4.46,0,0,0-1-6.23l-12.36-9.12a4.49,4.49,0,0,0-3.31-.82,4.44,4.44,0,0,0-2.92,1.77l-.71,1L92.9,32.68a4.46,4.46,0,0,0-6.23.94L76.06,48,73,46.37a4.46,4.46,0,0,0-6.2,2.19L54.23,78.14a4.49,4.49,0,0,0,.42,4.26l23,33.66L74,143.22a4.47,4.47,0,0,0,3.83,5,4,4,0,0,0,.6,0,4.46,4.46,0,0,0,4.41-3.86l3.88-28.86a4.46,4.46,0,0,0-.74-3.11L63.39,79.38l9.7-22.85,25,13.37-3.16,4.28-8.77-6.47a4.46,4.46,0,1,0-5.29,7.18L93.23,84h0l12.36,9.12h0L118,102.23a4.4,4.4,0,0,0,2.64.87,4.54,4.54,0,0,0,2.12-.54l-.6,5-8.55,9.27a4.47,4.47,0,0,0-1.18,3.26l1.3,24a4.46,4.46,0,0,0,4.45,4.22h.24a4.45,4.45,0,0,0,4.21-4.69l-1.2-22.15,8.26-9a4.47,4.47,0,0,0,1.14-2.49l2.56-21.18,7-9.46A4.45,4.45,0,0,0,139.38,73.17ZM91.2,42.5l5.19,3.82-6.64,9L84,52.26Zm6.49,17.08,9.23-12.52,5.19,3.83-8.68,11.76Zm11,11h0l.66-.89,6.57-8.91,5.19,3.82-.31.42,0,0L107.29,83.3l-5.18-3.83Zm11,21.88-5.19-3.82,10.85-14.72,5.19,3.83-5.07,6.87h0Z" transform="translate(-18.13 -6.14)" style="fill:#fcfcfc"/></svg>