<svg id="be62af64-9c6b-4d24-9cf0-b095c653ae53" data-name="Layer 1" xmlns="http://www.w3.org/2000/svg" viewBox="0 0 473.87 469.04"><title>biceps</title><path d="M211.83,39.06c-15,15.31-15.89,22.83-23.47,43.9,2.69,9.14,5.15,16.93,9.15,25.12,5.16.28,10.76.47,15.34.43-6.11-10.21-8.28-19.32-4.73-35.27,4.3,19.05,12.84,30,21.2,34.33q4.55-.51,8.78-1.15c-6.26-10.33-8.5-19.47-4.92-35.59,3.9,17.27,11.29,27.88,18.86,32.94,4.66-1,9.28-2.24,13.93-3.53-5.52-9.69-7.36-18.69-4-34,3.35,14.88,9.3,24.81,15.73,30.52,5.09-1.57,9.3-2.9,13.85-4.35a58.61,58.61,0,0,1,1.07-19.11l1.88-8.8,17.6,3.76-1.88,8.8c-3.63,17,1.33,24.42,7.31,28.67s14.69,3.46,16,2.6l7.57-4.86,9.72,15.15c-3.85,2.34-7.9,5.44-11.82,7.06,18.65,27.68,32.18,61.46,24.76,93.55-2.37,9.47-6,18.24-11.72,25a299.47,299.47,0,0,1,31,34.5c-3.71-2.38-7.58-4.84-11.69-7.37-11.39-7-23.83-14.21-35-19.8-16-7.8-31.36-18.2-47.73-20.52-22.55-3-46.27,4.8-73.32,21.06,7.87,8.72,13.28,15.47,20.31,24.29-7-4.34-14.65-9.07-23.16-14.23C180,244.7,147.17,214,112.13,212.19c-30.56-1.1-60,14.95-89.68,38.56L18,254.29V494H50c45.19-17.44,80.29-57.65,97-94.52l.25-.56.33-.52c9.46-15.26,11.15-29.69,16.79-44.74s16.9-29.71,41.88-38.75c4.36-2.16,5.07-1.42,8.64,1.39,30.46,24,57.29,32,83.23,32.35,32.61-1.55,58.45-9.88,85.69-19.38a140.53,140.53,0,0,1-14,10.77,272.44,272.44,0,0,1-46.3,24.8c-14.72,2-28.36,2.41-42,.61-10,12.09-25.57,20.36-37.35,26.67,63.92,14,115.88.91,167.39-22.89-9.53-1.82-19-3.69-28-5.42,31.64-4.42,65-3.77,94.71-3.53a36.31,36.31,0,0,0,8.7-.89c14.16-51.07-4.1-97.89-34.3-145.21s-72.18-94.11-101.89-143C329.7,53.88,302.2,39.68,273.27,25c-20.38,4.25-41,9.34-61.44,14.1Zm85.39,70.49c-11.68,3.6-23.71,7.43-33.85,10a31.79,31.79,0,0,1,3.39,16.2,51.77,51.77,0,0,0,29-6.35,46.06,46.06,0,0,0,11.41-9,35.55,35.55,0,0,1-9.92-10.9ZM243,124.25c-11.76,1.14-24.59,2.36-35.06,2.23,2.39,4.78,3.78,12.07,8.51,14.84,11.18,1.17,20.6,2,29.91-1.74C251.8,136.36,248.18,124.52,243,124.25ZM208,333.58c-17.59,7.23-22.58,15.14-26.81,26.41-4,10.66-6.23,25.07-14.48,41,32.29-6.38,69.63-21.23,93.85-40.09-17-5.1-34.55-13.85-52.55-27.33ZM217.34,405c-18.72,7.23-40.83,16.14-59.69,14.06-13.88,27.65-33.64,55-65.89,75h84.68c21.57-29.8,38.07-56.57,40.9-89Z" transform="translate(-18 -24.96)" style="fill:#fff"/></svg>