<svg id="b8d71663-a131-4efd-a477-7743f94efda2" data-name="Layer 1" xmlns="http://www.w3.org/2000/svg" viewBox="0 0 21.55 22.71"><title>cardio</title><path d="M13,6a2,2,0,1,0-2-2A2,2,0,0,0,13,6Z" transform="translate(-0.84 -0.5)" style="fill:none;stroke:#fff;stroke-linecap:round;stroke-linejoin:round;stroke-width:3px"/><path d="M10.61,7.27,7.3,11.4l4.14,4.14L9.37,20.09" transform="translate(-0.84 -0.5)" style="fill:none;stroke:#fff;stroke-linecap:round;stroke-linejoin:round;stroke-width:3px"/><path d="M4.41,8.51,7.8,5.2l2.81,2.07,2.9,3.31h1.72" transform="translate(-0.84 -0.5)" style="fill:none;stroke:#fff;stroke-linecap:round;stroke-linejoin:round;stroke-width:3px"/><path d="M6.89,14.71l-1.24.83H2.34" transform="translate(-0.84 -0.5)" style="fill:none;stroke:#fff;stroke-linecap:round;stroke-linejoin:round;stroke-width:3px"/><path d="M3.34,21.54l15.31-2V8" transform="translate(-0.84 -0.5)" style="fill:none;stroke:#fff;stroke-linecap:round;stroke-linejoin:round;stroke-width:3px"/><path d="M20.89,6,18.65,8,17,9.5" transform="translate(-0.84 -0.5)" style="fill:none;stroke:#fff;stroke-linecap:round;stroke-linejoin:round;stroke-width:3px"/><path d="M20.89,21.71l-2.24-2.17" transform="translate(-0.84 -0.5)" style="fill:none;stroke:#fff;stroke-linecap:round;stroke-linejoin:round;stroke-width:3px"/></svg>