<svg id="fec6ee55-3636-429a-9009-932a4dc17ace" data-name="Capa 1" xmlns="http://www.w3.org/2000/svg" viewBox="0 0 438.54 475.85"><title>weight</title><path d="M237.42,167.93a40,40,0,1,0-40-40A40,40,0,0,0,237.42,167.93Zm0-71.42A31.46,31.46,0,1,1,206,128,31.49,31.49,0,0,1,237.42,96.51Z" transform="translate(-18.15 0.5)" style="fill:#fff;stroke:#fff;stroke-miterlimit:10"/><path d="M441.94,0h-52a14.26,14.26,0,0,0-14.25,14.25V51H99.16V14.25A14.27,14.27,0,0,0,84.91,0h-52A14.26,14.26,0,0,0,18.65,14.25v97A14.26,14.26,0,0,0,32.9,125.51h52a14.27,14.27,0,0,0,14.25-14.25V74.51h41.13a23,23,0,0,0-10.06,27.17l34.65,102.84a22.91,22.91,0,0,0,19.54,15.58v230a24.75,24.75,0,1,0,49.49,0v-100a43.3,43.3,0,0,0,7,0v100a24.75,24.75,0,0,0,49.49,0v-230A22.9,22.9,0,0,0,310,204.52l34.65-102.84a23.05,23.05,0,0,0-10.05-27.17h41.13v36.75a14.26,14.26,0,0,0,14.25,14.25h52a14.26,14.26,0,0,0,14.25-14.25v-97A14.26,14.26,0,0,0,441.94,0ZM90.66,111.26A5.76,5.76,0,0,1,84.91,117H77.32V76.62a4.25,4.25,0,0,0-8.5,0V117H32.9a5.76,5.76,0,0,1-5.75-5.75v-97A5.76,5.76,0,0,1,32.9,8.5H43.32V90.89a4.25,4.25,0,0,0,8.5,0V8.5H84.91a5.76,5.76,0,0,1,5.75,5.75Zm93.76,98.45v1.83a14.46,14.46,0,0,1-11.48-9.73L138.29,99a14.57,14.57,0,0,1,27.62-9.3l32.21,95.62C190.05,191.9,184.42,200.31,184.42,209.71Zm81.26,256.63a16.26,16.26,0,0,1-16.25-16.24V345.26a4.24,4.24,0,0,0-4.25-4.25,3.64,3.64,0,0,0-.74.07,40.62,40.62,0,0,1-7,.66,39.7,39.7,0,0,1-7-.67,4.26,4.26,0,0,0-5,4.19V450.1a16.27,16.27,0,0,1-16.09,16.24v-116a4.25,4.25,0,0,0-8.5,0V464a16.23,16.23,0,0,1-7.9-13.91V209.71c0-16.74,27.33-30.87,44.5-30.87s44.5,14.13,44.5,30.87V450.1A16.27,16.27,0,0,1,265.68,466.34ZM336.55,99,301.91,201.81a14.45,14.45,0,0,1-11.49,9.73v-1.83c0-9.39-5.63-17.81-13.69-24.43l32.2-95.61a14.58,14.58,0,0,1,26.87-1.83A14.43,14.43,0,0,1,336.55,99ZM300.88,87l-31.4,93.23c-10.22-6.18-22.36-9.84-32.06-9.84s-21.83,3.66-32,9.83L174,87a22.94,22.94,0,0,0-10.07-12.44H311A23,23,0,0,0,300.88,87ZM99.16,66v-6.5H375.69V66Zm348.53,45.25a5.76,5.76,0,0,1-5.75,5.75H407.31V51.49a4.25,4.25,0,0,0-8.5,0V117h-8.87a5.76,5.76,0,0,1-5.75-5.75v-97a5.76,5.76,0,0,1,5.75-5.75H427.3V58.82a4.25,4.25,0,0,0,8.5,0V8.5h6.14a5.76,5.76,0,0,1,5.75,5.75Z" transform="translate(-18.15 0.5)" style="fill:#fff;stroke:#fff;stroke-miterlimit:10"/><path d="M266.56,222a4.25,4.25,0,0,0-4.25,4.25v79.49a4.25,4.25,0,0,0,8.5,0V226.25A4.25,4.25,0,0,0,266.56,222Z" transform="translate(-18.15 0.5)" style="fill:#fff;stroke:#fff;stroke-miterlimit:10"/></svg>