<svg id="e5a471f1-a8b5-4311-89eb-bcb3eead2190" data-name="Layer 1" xmlns="http://www.w3.org/2000/svg" viewBox="0 0 377.63 513"><title>yoga</title><path d="M444,433.88a27.31,27.31,0,0,0-31.21-22.79l-98,3.9V279.64c1.3-3.07-2.18,13.48,50.57-254.79a20.83,20.83,0,0,0-40.88-8L298.24,150.25a46,46,0,0,0-84.53.05L187.46,16.82a20.83,20.83,0,1,0-40.87,8c52.74,268.24,49.26,251.74,50.6,254.87V414.9l-98-3.81a27.33,27.33,0,0,0-9.85,53.74l32.44,6.87a24.81,24.81,0,0,0,21.29,40.23c118.85-9.12,111-8.46,112.9-8.8,2.25.41,113.47,8.87,114.82,8.87a24.8,24.8,0,0,0,19.34-40.32l32.47-6.85A27.4,27.4,0,0,0,444,433.88ZM281.27,236.6H230.68l-6.94-35.31a46,46,0,0,0,64.46,0Z" transform="translate(-67.19 0.5)" style="fill:#fff;stroke:#fff;stroke-miterlimit:10"/></svg>